<?xml version="1.0" encoding="utf-8"?><!-- Uploaded to: SVG Repo, www.svgrepo.com, Generator: SVG Repo Mixer Tools -->
<svg width="800px" height="800px" viewBox="0 0 24 24" xmlns="http://www.w3.org/2000/svg" id="mic" class="icon glyph"><path d="M12,20a9,9,0,0,1-7-3.37,1,1,0,0,1,1.56-1.26,7,7,0,0,0,10.92,0A1,1,0,0,1,19,16.63,9,9,0,0,1,12,20Z" style="fill:#231f20"></path><path d="M12,2A5,5,0,0,0,7,7v4a5,5,0,0,0,10,0V7A5,5,0,0,0,12,2Z" style="fill:#231f20"></path><path d="M12,22a1,1,0,0,1-1-1V19a1,1,0,0,1,2,0v2A1,1,0,0,1,12,22Z" style="fill:#231f20"></path></svg>