<svg width="394" height="378" viewBox="0 0 394 378" fill="none" xmlns="http://www.w3.org/2000/svg">
<path d="M279.06 142.18L166.91 149.12L158 5.16L241.28 0L271.85 25.65L279.06 142.18Z" fill="#EBEBEB"/>
<path d="M241.28 0L271.85 25.65L242.97 27.44L241.28 0Z" fill="#DBDBDB"/>
<path d="M210.23 96.87L209.79 93.62C208.66 86.89 210.5 79.36 216.35 71.49C221.63 64.49 224.49 59.49 224.17 53.81C223.81 47.41 219.56 43.37 211.65 43.69C207.129 43.9248 202.787 45.5291 199.2 48.29L195.75 40.56C199.75 37.31 206.75 34.91 213.4 34.56C227.83 33.76 234.85 42.3 235.4 51.83C235.88 60.36 231.46 66.77 225.84 74.26C220.68 81.09 218.99 86.72 219.72 93.09L220.03 96.35L210.23 96.87ZM208.45 114.58C208.19 109.94 211.14 106.5 215.53 106.26C219.92 106.02 223.12 109.1 223.38 113.75C223.62 118.14 220.93 121.68 216.29 121.94C211.86 122.19 208.66 118.97 208.41 114.58H208.45Z" fill="#DBDBDB"/>
<path d="M349.14 377.73H44.46L88.5099 127.88H393.19L349.14 377.73Z" fill="#FFC727"/>
<path d="M192.79 102H93.08L88.51 127.88H195.22L192.79 102Z" fill="#FFC727"/>
<g opacity="0.1">
<path d="M349.14 377.73H44.46L88.5099 127.88H393.19L349.14 377.73Z" fill="black"/>
<path d="M192.79 102H93.08L88.51 127.88H195.22L192.79 102Z" fill="black"/>
</g>
<path d="M82.3199 112.56C81.6531 109.698 81.6531 106.722 82.3199 103.86C82.9866 106.722 82.9866 109.698 82.3199 112.56Z" fill="#263238"/>
<path d="M73.4601 115.12C72.4419 114.064 71.5646 112.881 70.8501 111.6C70.1007 110.346 69.5127 109.002 69.1001 107.6C70.1213 108.65 70.9989 109.83 71.7101 111.11C72.4579 112.369 73.0457 113.716 73.4601 115.12Z" fill="#263238"/>
<path d="M67.06 121.77C64.2501 120.916 61.6739 119.427 59.53 117.42C60.932 117.827 62.2761 118.412 63.53 119.16C64.8111 119.879 65.997 120.756 67.06 121.77Z" fill="#263238"/>
<path d="M64.8201 130.73C61.9585 131.397 58.9818 131.397 56.1201 130.73C58.9818 130.063 61.9585 130.063 64.8201 130.73Z" fill="#263238"/>
<path d="M67.4199 139.59C66.3596 140.603 65.1772 141.48 63.8999 142.2C62.646 142.948 61.3018 143.533 59.8999 143.94C60.9557 142.922 62.1389 142.044 63.4199 141.33C64.672 140.579 66.0166 139.994 67.4199 139.59Z" fill="#263238"/>
<path d="M74.0599 145.98C73.2086 148.794 71.7201 151.374 69.71 153.52C70.1171 152.116 70.7054 150.772 71.46 149.52C72.1728 148.234 73.0465 147.045 74.0599 145.98Z" fill="#263238"/>
<path d="M83.02 148.19C83.3687 149.613 83.5367 151.075 83.52 152.54C83.5416 154.005 83.3735 155.468 83.02 156.89C82.6617 155.469 82.4935 154.006 82.52 152.54C82.5034 151.075 82.6714 149.613 83.02 148.19Z" fill="#263238"/>
<path d="M91.8799 145.68C92.8981 146.736 93.7754 147.919 94.4899 149.2C95.2413 150.452 95.8262 151.797 96.2299 153.2C94.2197 151.054 92.7312 148.474 91.8799 145.66V145.68Z" fill="#263238"/>
<path d="M98.27 138.98C99.6733 139.384 101.018 139.969 102.27 140.72C103.551 141.434 104.734 142.312 105.79 143.33C104.387 142.926 103.042 142.341 101.79 141.59C100.509 140.875 99.3258 139.998 98.27 138.98Z" fill="#263238"/>
<path d="M100.48 130.02C103.345 129.353 106.325 129.353 109.19 130.02C106.325 130.686 103.345 130.686 100.48 130.02Z" fill="#263238"/>
<path d="M97.9199 121.16C98.9785 120.148 100.161 119.274 101.44 118.56C102.69 117.801 104.035 117.213 105.44 116.81C103.294 118.82 100.714 120.309 97.8999 121.16H97.9199Z" fill="#263238"/>
<path d="M91.27 114.77C91.6817 113.37 92.2662 112.026 93.01 110.77C93.7245 109.489 94.6018 108.306 95.62 107.25C95.2163 108.653 94.6314 109.998 93.88 111.25C93.1655 112.531 92.2882 113.714 91.27 114.77Z" fill="#263238"/>
<path d="M348.69 377.73H43.36L0 136.95H305.34L348.69 377.73Z" fill="#FFC727"/>
<path d="M105.81 284.14C112.819 284.14 118.5 278.459 118.5 271.45C118.5 264.442 112.819 258.76 105.81 258.76C98.8016 258.76 93.1201 264.442 93.1201 271.45C93.1201 278.459 98.8016 284.14 105.81 284.14Z" fill="#263238"/>
<path d="M206.13 284.14C213.138 284.14 218.82 278.459 218.82 271.45C218.82 264.442 213.138 258.76 206.13 258.76C199.121 258.76 193.44 264.442 193.44 271.45C193.44 278.459 199.121 284.14 206.13 284.14Z" fill="#263238"/>
<path d="M174.2 286.17L173.5 284.84C173.44 284.72 166.88 272.6 153.69 272.6C141.69 272.6 138.69 284.01 138.61 284.5L138.25 285.95L135.34 285.25L135.69 283.79C135.69 283.65 139.27 269.6 153.69 269.6C168.69 269.6 175.86 282.88 176.16 283.45L176.86 284.77L174.2 286.17Z" fill="#263238"/>
</svg>
