<svg width="800" height="800" viewBox="0 0 800 800" fill="none" xmlns="http://www.w3.org/2000/svg">
<path d="M533.333 333.333L619.227 281.797C645.663 265.934 658.883 258.003 669.76 259.017C679.243 259.901 687.897 264.8 693.533 272.478C700 281.283 700 296.698 700 327.53V472.47C700 503.3 700 518.717 693.533 527.523C687.897 535.2 679.243 540.1 669.76 540.983C658.883 541.997 645.663 534.067 619.227 518.203L533.333 466.667M206.667 600H426.667C464.003 600 482.673 600 496.933 592.733C509.477 586.343 519.677 576.143 526.067 563.6C533.333 549.34 533.333 530.67 533.333 493.333V306.667C533.333 269.33 533.333 250.661 526.067 236.401C519.677 223.856 509.477 213.658 496.933 207.266C482.673 200 464.003 200 426.667 200H206.667C169.33 200 150.661 200 136.401 207.266C123.856 213.658 113.658 223.856 107.266 236.401C100 250.661 100 269.33 100 306.667V493.333C100 530.67 100 549.34 107.266 563.6C113.658 576.143 123.856 586.343 136.401 592.733C150.661 600 169.33 600 206.667 600Z" fill="black"/>
<path d="M533.333 333.333L619.227 281.797C645.663 265.934 658.883 258.003 669.76 259.017C679.243 259.901 687.897 264.8 693.533 272.478C700 281.283 700 296.698 700 327.53V472.47C700 503.3 700 518.717 693.533 527.523C687.897 535.2 679.243 540.1 669.76 540.983C658.883 541.997 645.663 534.067 619.227 518.203L533.333 466.667M206.667 600H426.667C464.003 600 482.673 600 496.933 592.733C509.477 586.343 519.677 576.143 526.067 563.6C533.333 549.34 533.333 530.67 533.333 493.333V306.667C533.333 269.33 533.333 250.661 526.067 236.401C519.677 223.856 509.477 213.658 496.933 207.266C482.673 200 464.003 200 426.667 200H206.667C169.33 200 150.661 200 136.401 207.266C123.856 213.658 113.658 223.856 107.266 236.401C100 250.661 100 269.33 100 306.667V493.333C100 530.67 100 549.34 107.266 563.6C113.658 576.143 123.856 586.343 136.401 592.733C150.661 600 169.33 600 206.667 600Z" stroke="black" stroke-width="66.6667" stroke-linecap="round" stroke-linejoin="round"/>
<rect x="166" y="519" width="106" height="27" rx="13.5" fill="#D9D9D9"/>
</svg>
